<?xml version="1.0" encoding="UTF-8"?>
<svg version="1.1" xmlns="http://www.w3.org/2000/svg" width="500" height="500">
<path d="M0 0 C3.49486255 2.79589004 4.70266729 4.47383072 5.55859375 8.8671875 C6.09393995 17.97899837 3.05095285 23.64529349 -2 31 C-3.01037814 32.66039567 -4.01386708 34.32509116 -5 36 C-3.62181748 35.42422597 -2.24761961 34.83891271 -0.875 34.25 C0.27355469 33.76273437 0.27355469 33.76273437 1.4453125 33.265625 C6.89811681 30.56423571 11.51722106 26.86766439 16.125 22.9375 C25.48959881 15 25.48959881 15 28 15 C28 14.34 28 13.68 28 13 C28.556875 12.773125 29.11375 12.54625 29.6875 12.3125 C32.20943818 11.02269337 32.20943818 11.02269337 34.5 8.4375 C37.92035398 5.10265487 37.92035398 5.10265487 41 5 C41.99 5.66 42.98 6.32 44 7 C44 7.66 44 8.32 44 9 C44.66 9 45.32 9 46 9 C46 9.66 46 10.32 46 11 C46.66 11 47.32 11 48 11 C48.99 13.97 48.99 13.97 50 17 C50.66 17 51.32 17 52 17 C52 16.34 52 15.68 52 15 C56.35294118 11 56.35294118 11 60 11 C60 10.34 60 9.68 60 9 C60.99 9 61.98 9 63 9 C63.33 8.34 63.66 7.68 64 7 C67.36189263 6.23881676 69.96899811 5.69348593 73.3125 6.6875 C76.22043388 8.94922635 76.9029775 11.40143376 77.484375 14.98828125 C77.9782167 21.16856494 78.29692116 26.1901406 76 32 C77.98 32 79.96 32 82 32 C82.33 31.01 82.66 30.02 83 29 C84.671875 27.31640625 84.671875 27.31640625 86.75 25.5625 C87.46671875 24.9540625 88.1834375 24.345625 88.921875 23.71875 C91.26014318 21.78484399 93.60876067 19.86815572 96 18 C97.98 19.98 97.98 19.98 100 22 C99.01 23.98 98.02 25.96 97 28 C96.34 28 95.68 28 95 28 C95 28.99 95 29.98 95 31 C94.34 31 93.68 31 93 31 C92.62101562 31.87978516 92.62101562 31.87978516 92.234375 32.77734375 C89.13195057 38.36367129 82.88117767 42.77822177 77 45 C74.125 45.1875 74.125 45.1875 72 45 C72 44.34 72 43.68 72 43 C71.38125 42.731875 70.7625 42.46375 70.125 42.1875 C68 41 68 41 66 38 C66 36.68 66 35.36 66 34 C65.34 34 64.68 34 64 34 C64 29.38 64 24.76 64 20 C58.34350471 22.66771754 58.34350471 22.66771754 54.75 25.1875 C52 27 52 27 50 27 C49.75121094 27.58652344 49.50242187 28.17304688 49.24609375 28.77734375 C47.82588804 31.31056333 46.28816254 32.70985353 44.0625 34.5625 C41.11693957 37.03190133 41.11693957 37.03190133 38.37109375 39.71484375 C37 41 37 41 35 41 C34.67 41.99 34.34 42.98 34 44 C30.6875 44.25 30.6875 44.25 27 44 C25.0625 42.25 25.0625 42.25 24 40 C24 38.68 24 37.36 24 36 C24.66 36 25.32 36 26 36 C25.67 35.01 25.34 34.02 25 33 C26.21484375 30.51953125 26.21484375 30.51953125 27.9375 27.8125 C28.50339844 26.91144531 29.06929688 26.01039063 29.65234375 25.08203125 C30.09707031 24.39496094 30.54179687 23.70789063 31 23 C29.68 23.33 28.36 23.66 27 24 C27 24.66 27 25.32 27 26 C26.34 26 25.68 26 25 26 C24.7421875 26.59296875 24.484375 27.1859375 24.21875 27.796875 C22.90230105 30.17660965 21.57419218 31.50978792 19.5 33.25 C18.8915625 33.77078125 18.283125 34.2915625 17.65625 34.828125 C16 36 16 36 14 36 C13.67 36.99 13.34 37.98 13 39 C10.87470035 40.48626398 8.7943025 41.82172282 6.5625 43.125 C5.6643457 43.66447266 5.6643457 43.66447266 4.74804688 44.21484375 C0.1151329 46.98525367 -2.51422742 48.53782084 -8 48 C-12.87290241 45.21548434 -15.0970094 41.12264497 -17 36 C-17.62502924 31.72896685 -16.27910193 28.07713741 -15 24 C-14.34 24 -13.68 24 -13 24 C-12.71125 23.278125 -12.4225 22.55625 -12.125 21.8125 C-11.08333333 19.20833333 -10.04166667 16.60416667 -9 14 C-11.4732659 15.40374551 -13.66939168 16.66939168 -15.6875 18.6875 C-16.120625 19.120625 -16.55375 19.55375 -17 20 C-17.66 20 -18.32 20 -19 20 C-19.495 21.485 -19.495 21.485 -20 23 C-20.804375 23.12375 -21.60875 23.2475 -22.4375 23.375 C-23.283125 23.58125 -24.12875 23.7875 -25 24 C-25.33 24.66 -25.66 25.32 -26 26 C-28.54868779 27.72946672 -29.65256571 28.0473774 -32.75 27.625 C-33.4925 27.41875 -34.235 27.2125 -35 27 C-35.495 28.485 -35.495 28.485 -36 30 C-36.66 30 -37.32 30 -38 30 C-38.226875 30.53625 -38.45375 31.0725 -38.6875 31.625 C-40.76128964 35.37757173 -43.04568738 39.34856246 -47.25 40.75 C-47.8275 40.8325 -48.405 40.915 -49 41 C-49.495 41.99 -49.495 41.99 -50 43 C-55.17496733 45.69529549 -60.14108636 46.95226954 -66 47 C-66.66 46.67 -67.32 46.34 -68 46 C-68 45.34 -68 44.68 -68 44 C-68.5775 43.79375 -69.155 43.5875 -69.75 43.375 C-72.99201101 41.39377105 -74.22859812 39.35955529 -76 36 C-76.59127515 33.00453169 -76.86453457 30.04797212 -77 27 C-77.61875 26.896875 -78.2375 26.79375 -78.875 26.6875 C-81 26 -81 26 -83 23 C-79.24390244 15.75609756 -79.24390244 15.75609756 -75 14 C-74.67 13.01 -74.34 12.02 -74 11 C-73.01 11 -72.02 11 -71 11 C-71 10.34 -71 9.68 -71 9 C-70.01 8.67 -69.02 8.34 -68 8 C-67.57976562 7.52820313 -67.15953125 7.05640625 -66.7265625 6.5703125 C-64.22880151 4.29859322 -61.60198363 3.78370714 -58.375 2.875 C-54.38110157 2.02049467 -54.38110157 2.02049467 -51 0 C-45.25498208 0.34470107 -41.74867882 1.99573381 -37 5 C-37.0928125 6.3921875 -37.0928125 6.3921875 -37.1875 7.8125 C-36.96806292 11.54293034 -36.52573652 11.57140719 -34 14 C-33.25613932 16.30988315 -32.57809297 18.64315944 -32 21 C-31.505 19.515 -31.505 19.515 -31 18 C-29.27105503 16.9887303 -27.5382715 15.98240388 -25.7734375 15.03515625 C-23.44752427 13.67751967 -21.80241611 11.98887295 -20 10 C-18.70529025 8.62913085 -17.37849103 7.28659163 -16 6 C-15.34 6 -14.68 6 -14 6 C-14 5.34 -14 4.68 -14 4 C-12.61518672 3.12808053 -11.21654754 2.27809616 -9.8125 1.4375 C-9.03519531 0.96183594 -8.25789063 0.48617187 -7.45703125 -0.00390625 C-4.45438393 -1.2211957 -3.04368646 -1.01623084 0 0 Z M-51 13 C-51 13.66 -51 14.32 -51 15 C-52.1446875 15.185625 -52.1446875 15.185625 -53.3125 15.375 C-56.64003709 16.14884583 -58.46608578 17.18369763 -60.3515625 20.06640625 C-63.30732306 25.86005961 -64.68531082 30.49642358 -65 37 C-63.17765712 38.12001826 -63.17765712 38.12001826 -61 39 C-57.79101437 38.2086563 -57.79101437 38.2086563 -55 37 C-55 36.34 -55 35.68 -55 35 C-54.01 35 -53.02 35 -52 35 C-49.57286241 32.38148757 -49.57286241 32.38148757 -49 29 C-48.34 28.67 -47.68 28.34 -47 28 C-45.43251894 24.28754487 -44.52338961 21.81457684 -46 18 C-46.350625 17.0925 -46.70125 16.185 -47.0625 15.25 C-47.5265625 14.13625 -47.5265625 14.13625 -48 13 C-48.99 13 -49.98 13 -51 13 Z " fill="#F4C924" transform="translate(214,226)"/>
<path d="M0 0 C1.19753906 -0.01611328 2.39507812 -0.03222656 3.62890625 -0.04882812 C10.89002129 -0.05280464 17.07125152 0.72957739 23.875 3.3125 C23.875 3.9725 23.875 4.6325 23.875 5.3125 C24.865 5.3125 25.855 5.3125 26.875 5.3125 C26.875 5.9725 26.875 6.6325 26.875 7.3125 C27.865 7.3125 28.855 7.3125 29.875 7.3125 C31.72876666 10.03862745 31.87013447 11.44873489 31.75 14.8125 C30.80583228 18.58917089 29.94159935 19.98931867 26.875 22.3125 C26.215 22.3125 25.555 22.3125 24.875 22.3125 C24.875 22.9725 24.875 23.6325 24.875 24.3125 C23.885 24.3125 22.895 24.3125 21.875 24.3125 C21.545 24.9725 21.215 25.6325 20.875 26.3125 C19.02734375 27.3828125 19.02734375 27.3828125 16.8125 28.4375 C15.71228516 28.96730469 15.71228516 28.96730469 14.58984375 29.5078125 C14.02394531 29.77335937 13.45804687 30.03890625 12.875 30.3125 C16.89847588 33.78221377 16.89847588 33.78221377 21.875 35.3125 C21.875 35.9725 21.875 36.6325 21.875 37.3125 C22.9578125 37.6528125 22.9578125 37.6528125 24.0625 38 C27.49843285 39.60343533 29.445504 41.410602 31.875 44.3125 C32.5625 47.0625 32.5625 47.0625 32.875 49.3125 C33.535 49.6425 34.195 49.9725 34.875 50.3125 C34.875 52.2925 34.875 54.2725 34.875 56.3125 C34.215 56.3125 33.555 56.3125 32.875 56.3125 C32.854375 57.17875 32.83375 58.045 32.8125 58.9375 C31.49592736 63.6771615 28.6594131 65.41082529 24.875 68.3125 C24.215 68.9725 23.555 69.6325 22.875 70.3125 C15.5295053 76.59022855 7.10983363 80.56169849 -2.125 83.3125 C-2.86105469 83.54710937 -3.59710938 83.78171875 -4.35546875 84.0234375 C-9.49428522 85.63280328 -14.60405576 86.89981654 -19.8984375 87.8828125 C-22.08887374 88.27408928 -22.08887374 88.27408928 -24.0546875 88.8515625 C-31.79160609 90.57412173 -39.01952424 89.54226171 -46.125 86.3125 C-47.115 85.9825 -48.105 85.6525 -49.125 85.3125 C-50.13070979 82.11251432 -50.34364753 80.77165981 -48.875 77.6875 C-46.01973684 73.8125 -46.01973684 73.8125 -44.125 72.3125 C-43.135 72.3125 -42.145 72.3125 -41.125 72.3125 C-40.795 71.6525 -40.465 70.9925 -40.125 70.3125 C-38.80273956 69.38999272 -37.44306689 68.52022289 -36.0625 67.6875 C-34.96228516 67.01847656 -34.96228516 67.01847656 -33.83984375 66.3359375 C-32.99099609 65.82933594 -32.99099609 65.82933594 -32.125 65.3125 C-32.90875 64.44625 -33.6925 63.58 -34.5 62.6875 C-36.94918035 59.72049295 -38.45338999 57.17425756 -39.125 53.3125 C-37.9375 51.4375 -37.9375 51.4375 -36.125 49.3125 C-35.40335491 47.37717907 -34.68411001 45.44084594 -33.98828125 43.49609375 C-32.18825468 38.94308536 -29.57384973 34.80135173 -27.11621094 30.57958984 C-26.38216274 29.31648903 -25.64968153 28.05247637 -24.91870117 26.78759766 C-24.18881722 25.52564425 -23.45468688 24.26613608 -22.71606445 23.00927734 C-20.75681913 19.86834335 -20.75681913 19.86834335 -20.125 16.3125 C-19.465 16.3125 -18.805 16.3125 -18.125 16.3125 C-17.795 14.6625 -17.465 13.0125 -17.125 11.3125 C-23.05880001 11.11089864 -28.18873092 11.75665015 -33.9375 13.1875 C-35.06188477 13.44853516 -35.06188477 13.44853516 -36.20898438 13.71484375 C-41.19759129 14.91852906 -44.07478325 16.15456871 -47.5625 20 C-50.125 22.3125 -50.125 22.3125 -52.25 22.3125 C-54.42394654 21.15306185 -55.73120474 20.36651406 -57.125 18.3125 C-56.91781853 15.12190543 -56.58503848 13.7342797 -54.19921875 11.546875 C-53.41160156 11.05703125 -52.62398437 10.5671875 -51.8125 10.0625 C-51.03261719 9.56234375 -50.25273438 9.0621875 -49.44921875 8.546875 C-47.28068204 7.39518155 -45.54801749 6.6638117 -43.125 6.3125 C-42.465 6.6425 -41.805 6.9725 -41.125 7.3125 C-40.795 6.6525 -40.465 5.9925 -40.125 5.3125 C-39.465 5.6425 -38.805 5.9725 -38.125 6.3125 C-38.125 5.6525 -38.125 4.9925 -38.125 4.3125 C-36.805 4.6425 -35.485 4.9725 -34.125 5.3125 C-34.125 4.6525 -34.125 3.9925 -34.125 3.3125 C-33.0525 3.18875 -31.98 3.065 -30.875 2.9375 C-27.45388129 2.5217002 -24.09691574 1.93131852 -20.7109375 1.29296875 C-13.78934594 0.13443724 -7.00556212 -0.01897498 0 0 Z M-4.19921875 9.921875 C-6.49508862 12.77192036 -7.57257672 15.4368531 -8.8125 18.875 C-9.22886719 20.01066406 -9.64523438 21.14632812 -10.07421875 22.31640625 C-10.77331328 24.30973528 -11.45701094 26.30853283 -12.125 28.3125 C-11.465 28.6425 -10.805 28.9725 -10.125 29.3125 C-10.125 28.6525 -10.125 27.9925 -10.125 27.3125 C-8.475 26.9825 -6.825 26.6525 -5.125 26.3125 C-5.125 25.6525 -5.125 24.9925 -5.125 24.3125 C-4.59132813 24.14234375 -4.05765625 23.9721875 -3.5078125 23.796875 C2.39354354 21.87740279 8.13269775 19.66075936 13.875 17.3125 C14.77734375 17.02503906 15.6796875 16.73757812 16.609375 16.44140625 C19.06370541 15.53745831 19.06370541 15.53745831 19.6875 13.1875 C19.7803125 12.259375 19.7803125 12.259375 19.875 11.3125 C7.49592656 7.39079144 7.49592656 7.39079144 -4.19921875 9.921875 Z M-16.125 35.3125 C-16.393125 36.0653125 -16.66125 36.818125 -16.9375 37.59375 C-20.35680657 46.86187044 -24.59072025 55.54772599 -29.125 64.3125 C-28.44308594 64.03277344 -27.76117188 63.75304687 -27.05859375 63.46484375 C-22.61841394 61.72069855 -18.10384582 60.19307869 -13.59765625 58.62890625 C-10.30178703 57.37951601 -7.25240596 55.931593 -4.125 54.3125 C5.29419629 49.69753057 5.29419629 49.69753057 10 51.0625 C10.94875 51.475 11.8975 51.8875 12.875 52.3125 C13.1875 55.125 13.1875 55.125 12.875 58.3125 C10.375 60.1875 10.375 60.1875 7.875 61.3125 C7.875 60.6525 7.875 59.9925 7.875 59.3125 C4.905 59.3125 1.935 59.3125 -1.125 59.3125 C-1.125 59.9725 -1.125 60.6325 -1.125 61.3125 C-2.38570312 61.21582031 -2.38570312 61.21582031 -3.671875 61.1171875 C-7.75043747 61.34787542 -10.77915501 62.65417216 -14.375 64.4375 C-15.02670166 64.75082275 -15.67840332 65.06414551 -16.34985352 65.38696289 C-21.79831 68.04911671 -27.02214439 71.03466569 -32.125 74.3125 C-31.795 74.9725 -31.465 75.6325 -31.125 76.3125 C-27.825 76.3125 -24.525 76.3125 -21.125 76.3125 C-21.125 75.6525 -21.125 74.9925 -21.125 74.3125 C-20.2896875 74.5909375 -20.2896875 74.5909375 -19.4375 74.875 C-6.92216609 77.24276587 8.60969638 66.17098136 18.875 60.3125 C18.875 59.6525 18.875 58.9925 18.875 58.3125 C19.4525 58.065 20.03 57.8175 20.625 57.5625 C23.2738272 56.09092934 24.97874141 54.68282324 26.875 52.3125 C27.54185938 49.76922892 27.54185938 49.76922892 26.875 47.3125 C22.50667076 42.18446133 13.09566749 42.13409759 6.875 41.3125 C5.988125 41.126875 5.10125 40.94125 4.1875 40.75 C-0.03952891 40.19171316 -4.16153677 40.33880619 -8.41796875 40.47265625 C-11.125 40.3125 -11.125 40.3125 -14.125 38.3125 C-14.785 37.3225 -15.445 36.3325 -16.125 35.3125 Z " fill="#F4C924" transform="translate(99.125,184.6875)"/>
<path d="M0 0 C0 0.66 0 1.32 0 2 C0.66 2 1.32 2 2 2 C2 6 2 6 0.8125 7.4375 C0.214375 7.953125 -0.38375 8.46875 -1 9 C-4.93026768 12.72341149 -7.94994734 16.55563755 -11 21 C-10.05125 20.79375 -9.1025 20.5875 -8.125 20.375 C-6.578125 20.189375 -6.578125 20.189375 -5 20 C-2.8614515 22.1385485 -2.57344937 23.13275314 -2 26 C-1.2575 26.12375 -0.515 26.2475 0.25 26.375 C3 27 3 27 4.73828125 28.08203125 C8.00618033 29.40838062 10.4776278 28.83314246 13.9375 28.3125 C15.14277344 28.14363281 16.34804688 27.97476563 17.58984375 27.80078125 C20.96035528 27.00930947 23.12451744 25.86726327 26 24 C26.66 24 27.32 24 28 24 C28.0928125 23.13375 28.0928125 23.13375 28.1875 22.25 C29.32027301 19.11309013 31.34197595 17.90832496 34 16 C35.89213369 18.38573379 37.02391783 20.07175348 38 23 C38.56589844 22.84402344 39.13179688 22.68804687 39.71484375 22.52734375 C40.81505859 22.23537109 40.81505859 22.23537109 41.9375 21.9375 C43.03384766 21.64166016 43.03384766 21.64166016 44.15234375 21.33984375 C44.76207031 21.22769531 45.37179687 21.11554688 46 21 C46.33 21.33 46.66 21.66 47 22 C46.875 25.375 46.875 25.375 46 29 C43.75 31.0625 43.75 31.0625 41 32 C38.1875 31.1875 38.1875 31.1875 36 30 C36 30.66 36 31.32 36 32 C35.05125 32.061875 34.1025 32.12375 33.125 32.1875 C32.09375 32.455625 31.0625 32.72375 30 33 C28.74216399 35.13569881 28.74216399 35.13569881 28 38 C27.3135124 39.44805978 26.60379971 40.88526724 25.875 42.3125 C25.52179688 43.00988281 25.16859375 43.70726562 24.8046875 44.42578125 C24.53914063 44.94527344 24.27359375 45.46476562 24 46 C23.34 46 22.68 46 22 46 C22.185625 46.845625 22.37125 47.69125 22.5625 48.5625 C23.03529632 52.2773282 22.66064631 55.32974273 22 59 C22.66 59 23.32 59 24 59 C24.125 62.375 24.125 62.375 24 66 C22 68 22 68 19.375 68.125 C18.59125 68.08375 17.8075 68.0425 17 68 C13.40621058 62.60931587 12.54643757 59.46326465 13 53 C12.01 53.845625 11.02 54.69125 10 55.5625 C9.35933594 56.10648437 8.71867187 56.65046875 8.05859375 57.2109375 C6.69341256 58.3973758 5.35147496 59.61113493 4.03515625 60.8515625 C-0.43063304 65.00784164 -4.15059845 67.22428882 -10 69 C-14.66367713 64.69506726 -14.66367713 64.69506726 -15.9375 62.0625 C-16.02723023 59.10140232 -15.05753181 56.73714115 -14 54 C-14.99 53.505 -14.99 53.505 -16 53 C-16.33 53.99 -16.66 54.98 -17 56 C-19.5625 57.1875 -19.5625 57.1875 -22 58 C-23 57 -23 57 -23.625 54.375 C-22.74353666 49.61509799 -20.22819433 48.27876198 -16.40234375 45.546875 C-13.66114998 43.78181365 -10.98646449 42.30179221 -8 41 C-6.0625 42.0625 -6.0625 42.0625 -4 44 C-3.25 47.6875 -3.25 47.6875 -3 51 C-3.66 51 -4.32 51 -5 51 C-4.67 51.99 -4.34 52.98 -4 54 C-4.33 54.99 -4.66 55.98 -5 57 C-4.01 57 -3.02 57 -2 57 C-2 56.34 -2 55.68 -2 55 C-1.01 54.67 -0.02 54.34 1 54 C1.556875 53.29875 2.11375 52.5975 2.6875 51.875 C4.69081944 49.38438665 6.58279691 47.55394994 9 45.5 C12.05654207 42.89395574 14.62575183 40.26459124 17 37 C16.67 36.34 16.34 35.68 16 35 C13.79118862 35.62330842 11.58297135 36.24872241 9.375 36.875 C8.14523437 37.22304687 6.91546875 37.57109375 5.6484375 37.9296875 C2.40337981 38.88166374 -0.80010322 39.90711218 -4 41 C-6 39 -6 39 -6.125 36.375 C-6.08375 35.59125 -6.0425 34.8075 -6 34 C-5.34 34 -4.68 34 -4 34 C-4.495 32.02 -4.495 32.02 -5 30 C-10.04125634 28.31958122 -15.11919054 28.15963832 -19.9375 30.3125 C-22.26746003 31.91239177 -22.26746003 31.91239177 -23 35 C-23.66 35 -24.32 35 -25 35 C-25.33 36.65 -25.66 38.3 -26 40 C-26.66 40 -27.32 40 -28 40 C-28.2784375 40.86753906 -28.556875 41.73507813 -28.84375 42.62890625 C-29.93366195 45.80658871 -31.17080803 48.85361254 -32.5 51.9375 C-34.32360688 56.25713519 -35.86365488 60.45461954 -37 65 C-36.34 65.66 -35.68 66.32 -35 67 C-35 68.32 -35 69.64 -35 71 C-35.66 71 -36.32 71 -37 71 C-37 71.66 -37 72.32 -37 73 C-39.31 72.67 -41.62 72.34 -44 72 C-44 71.34 -44 70.68 -44 70 C-44.66 70 -45.32 70 -46 70 C-48.01124138 65.97751725 -47.21604913 61.74266888 -46 57.5625 C-45.67 56.716875 -45.34 55.87125 -45 55 C-44.34 55 -43.68 55 -43 55 C-42.896875 54.13375 -42.79375 53.2675 -42.6875 52.375 C-41.96284542 48.81760478 -40.7008844 46.18915825 -39 43 C-38.67 42.01 -38.34 41.02 -38 40 C-37.34 40 -36.68 40 -36 40 C-36 38.68 -36 37.36 -36 36 C-40.23884182 36 -42.29829809 38.15494861 -45.6484375 40.58984375 C-48.14032607 42.08414902 -50.14110766 42.60096732 -53 43 C-53.66 41.68 -54.32 40.36 -55 39 C-50.62194208 31.7032368 -41.88264457 29.62141862 -34.25 27 C-23.65489849 23.24190844 -17.17246766 15.32998405 -10 7 C-15.24887773 8.78461843 -20.21740987 10.98634487 -25.1875 13.4375 C-26.35667969 14.01371094 -27.52585937 14.58992187 -28.73046875 15.18359375 C-31.79040575 16.88355875 -34.34770292 18.72731606 -37 21 C-38.32 19.68 -39.64 18.36 -41 17 C-40.06446804 13.70336358 -39.43925022 12.28912673 -36.53125 10.375 C-35.5309375 9.92125 -34.530625 9.4675 -33.5 9 C-32.41847656 8.49984375 -31.33695312 7.9996875 -30.22265625 7.484375 C-29.15917969 6.99453125 -28.09570312 6.5046875 -27 6 C-25.31083916 5.08639741 -23.62320332 4.1699665 -21.9375 3.25 C-15.10189679 -0.1622979 -7.52587404 -2.03402001 0 0 Z " fill="#F4CA24" transform="translate(411,201)"/>
<path d="M0 0 C1.24716797 0.04833984 2.49433594 0.09667969 3.77929688 0.14648438 C5.07287109 0.20255859 6.36644531 0.25863281 7.69921875 0.31640625 C9.66858398 0.3947168 9.66858398 0.3947168 11.67773438 0.47460938 C14.91431614 0.60407265 18.15057296 0.73903167 21.38671875 0.87890625 C21.38671875 2.19890625 21.38671875 3.51890625 21.38671875 4.87890625 C18.74671875 4.87890625 16.10671875 4.87890625 13.38671875 4.87890625 C13.38671875 5.53890625 13.38671875 6.19890625 13.38671875 6.87890625 C15.69671875 6.87890625 18.00671875 6.87890625 20.38671875 6.87890625 C20.66515625 5.70328125 20.66515625 5.70328125 20.94921875 4.50390625 C22.38671875 1.87890625 22.38671875 1.87890625 25.63671875 0.56640625 C29.00597433 -0.05129061 31.97528684 -0.28750506 35.38671875 -0.12109375 C35.38671875 0.53890625 35.38671875 1.19890625 35.38671875 1.87890625 C36.43859375 1.54890625 37.49046875 1.21890625 38.57421875 0.87890625 C42.45385095 -0.1387022 45.40233729 -0.6487843 49.28808594 0.38452148 C52.69691498 1.18755531 56.15467299 0.98139441 59.63671875 0.94140625 C60.38179688 0.93689453 61.126875 0.93238281 61.89453125 0.92773438 C63.72529515 0.91599871 65.55601748 0.89806475 67.38671875 0.87890625 C67.38671875 1.86890625 67.38671875 2.85890625 67.38671875 3.87890625 C68.04671875 3.21890625 68.70671875 2.55890625 69.38671875 1.87890625 C74.84023086 -1.75676849 81.21889943 -0.14906364 87.38671875 0.87890625 C87.38671875 2.52890625 87.38671875 4.17890625 87.38671875 5.87890625 C89.36671875 5.87890625 91.34671875 5.87890625 93.38671875 5.87890625 C93.38671875 4.22890625 93.38671875 2.57890625 93.38671875 0.87890625 C95.69671875 0.87890625 98.00671875 0.87890625 100.38671875 0.87890625 C100.38671875 6.81890625 100.38671875 12.75890625 100.38671875 18.87890625 C98.40671875 19.20890625 96.42671875 19.53890625 94.38671875 19.87890625 C93.89171875 16.41390625 93.89171875 16.41390625 93.38671875 12.87890625 C91.40671875 12.87890625 89.42671875 12.87890625 87.38671875 12.87890625 C87.38671875 14.85890625 87.38671875 16.83890625 87.38671875 18.87890625 C81.91466461 20.24691979 76.59895241 20.96148868 71.44921875 18.44140625 C69.38671875 16.87890625 69.38671875 16.87890625 68.38671875 15.87890625 C68.05671875 17.19890625 67.72671875 18.51890625 67.38671875 19.87890625 C65.73671875 19.54890625 64.08671875 19.21890625 62.38671875 18.87890625 C61.89171875 15.41390625 61.89171875 15.41390625 61.38671875 11.87890625 C60.57267578 12.65427734 60.57267578 12.65427734 59.7421875 13.4453125 C59.02675781 14.10402344 58.31132812 14.76273437 57.57421875 15.44140625 C56.86652344 16.10269531 56.15882813 16.76398438 55.4296875 17.4453125 C54.75550781 17.91839844 54.08132813 18.39148438 53.38671875 18.87890625 C51.90171875 18.38390625 51.90171875 18.38390625 50.38671875 17.87890625 C49.80921875 18.20890625 49.23171875 18.53890625 48.63671875 18.87890625 C45.37231892 20.32975062 42.81827381 19.53882068 39.38671875 18.87890625 C39.38671875 18.21890625 39.38671875 17.55890625 39.38671875 16.87890625 C38.39671875 16.87890625 37.40671875 16.87890625 36.38671875 16.87890625 C36.38671875 17.53890625 36.38671875 18.19890625 36.38671875 18.87890625 C30.96936078 19.81293349 27.582203 20.08698706 22.38671875 17.87890625 C22.05671875 16.22890625 21.72671875 14.57890625 21.38671875 12.87890625 C21.38671875 13.53890625 21.38671875 14.19890625 21.38671875 14.87890625 C21.38671875 16.54557292 21.38671875 18.21223958 21.38671875 19.87890625 C19.26199299 19.93277254 17.13688223 19.97163696 15.01171875 20.00390625 C13.82835937 20.02710938 12.645 20.0503125 11.42578125 20.07421875 C8.38671875 19.87890625 8.38671875 19.87890625 6.38671875 17.87890625 C6.26171875 15.25390625 6.26171875 15.25390625 6.38671875 12.87890625 C4.07671875 12.87890625 1.76671875 12.87890625 -0.61328125 12.87890625 C-0.57203125 13.66265625 -0.53078125 14.44640625 -0.48828125 15.25390625 C-0.61328125 17.87890625 -0.61328125 17.87890625 -2.61328125 19.87890625 C-5.02758789 20.12182617 -5.02758789 20.12182617 -8.0234375 20.109375 C-9.09529297 20.10744141 -10.16714844 20.10550781 -11.27148438 20.10351562 C-12.39490234 20.09126953 -13.51832031 20.07902344 -14.67578125 20.06640625 C-16.36670898 20.06543945 -16.36670898 20.06543945 -18.09179688 20.06445312 C-26.47314808 20.01903942 -26.47314808 20.01903942 -27.61328125 18.87890625 C-27.69959999 17.53623212 -27.72034598 16.18916303 -27.7109375 14.84375 C-27.70771484 14.03486328 -27.70449219 13.22597656 -27.70117188 12.39257812 C-27.69279297 11.54244141 -27.68441406 10.69230469 -27.67578125 9.81640625 C-27.67126953 8.96240234 -27.66675781 8.10839844 -27.66210938 7.22851562 C-27.65028498 5.11194962 -27.63234894 2.9954194 -27.61328125 0.87890625 C-25.96328125 0.87890625 -24.31328125 0.87890625 -22.61328125 0.87890625 C-22.61328125 5.49890625 -22.61328125 10.11890625 -22.61328125 14.87890625 C-22.28328125 14.21890625 -21.95328125 13.55890625 -21.61328125 12.87890625 C-18.31328125 12.87890625 -15.01328125 12.87890625 -11.61328125 12.87890625 C-11.61328125 8.91890625 -11.61328125 4.95890625 -11.61328125 0.87890625 C-7.3522505 0.0267001 -4.26989748 -0.17547524 0 0 Z M-1.61328125 4.87890625 C0.99882144 8.14718765 0.99882144 8.14718765 4.07421875 8.06640625 C4.83734375 8.00453125 5.60046875 7.94265625 6.38671875 7.87890625 C6.71671875 6.88890625 7.04671875 5.89890625 7.38671875 4.87890625 C4.41671875 4.87890625 1.44671875 4.87890625 -1.61328125 4.87890625 Z M29.38671875 4.87890625 C26.95958116 7.49741868 26.95958116 7.49741868 26.38671875 10.87890625 C27.04671875 10.87890625 27.70671875 10.87890625 28.38671875 10.87890625 C28.38671875 11.53890625 28.38671875 12.19890625 28.38671875 12.87890625 C29.04671875 12.87890625 29.70671875 12.87890625 30.38671875 12.87890625 C30.71671875 13.53890625 31.04671875 14.19890625 31.38671875 14.87890625 C32.37671875 14.21890625 33.36671875 13.55890625 34.38671875 12.87890625 C34.63693445 9.79524754 34.63693445 9.79524754 34.38671875 6.87890625 C33.72671875 6.87890625 33.06671875 6.87890625 32.38671875 6.87890625 C32.38671875 6.21890625 32.38671875 5.55890625 32.38671875 4.87890625 C31.39671875 4.87890625 30.40671875 4.87890625 29.38671875 4.87890625 Z M42.38671875 4.87890625 C40.1053293 7.63588809 40.1053293 7.63588809 40.57421875 10.44140625 C41.22044317 13.21145742 41.22044317 13.21145742 44.38671875 14.87890625 C46.84926401 12.73756255 48.07722224 11.18020231 48.38671875 7.87890625 C47.72671875 6.88890625 47.06671875 5.89890625 46.38671875 4.87890625 C45.06671875 4.87890625 43.74671875 4.87890625 42.38671875 4.87890625 Z M53.38671875 4.87890625 C53.71671875 6.52890625 54.04671875 8.17890625 54.38671875 9.87890625 C56.03671875 8.22890625 57.68671875 6.57890625 59.38671875 4.87890625 C57.40671875 4.87890625 55.42671875 4.87890625 53.38671875 4.87890625 Z M74.38671875 4.87890625 C73.72671875 7.18890625 73.06671875 9.49890625 72.38671875 11.87890625 C74.86171875 13.36390625 74.86171875 13.36390625 77.38671875 14.87890625 C77.38671875 14.21890625 77.38671875 13.55890625 77.38671875 12.87890625 C78.70671875 13.20890625 80.02671875 13.53890625 81.38671875 13.87890625 C81.38671875 10.90890625 81.38671875 7.93890625 81.38671875 4.87890625 C79.07671875 4.87890625 76.76671875 4.87890625 74.38671875 4.87890625 Z " fill="#151515" transform="translate(251.61328125,295.12109375)"/>
<path d="M0 0 C3.125 0.375 3.125 0.375 6 1 C6.33 1.99 6.66 2.98 7 4 C7.928125 4 8.85625 4 9.8125 4 C13.10761329 4 16.05649582 4.00959363 19.3125 4.5625 C22.89464301 4.98750002 25.48672616 4.62458202 29 4 C32.58064516 4.58064516 32.58064516 4.58064516 34 6 C34.66 5.34 35.32 4.68 36 4 C37.33841672 4.31229724 38.67139075 4.64830932 40 5 C42.09821215 4.60061233 42.09821215 4.60061233 44 4 C44.66 4 45.32 4 46 4 C46 4.66 46 5.32 46 6 C46.99 6 47.98 6 49 6 C49 5.34 49 4.68 49 4 C49.66 4 50.32 4 51 4 C51.33 3.01 51.66 2.02 52 1 C53.32 1 54.64 1 56 1 C56.02686553 2.97909398 56.04633375 4.95828971 56.0625 6.9375 C56.07410156 8.03964844 56.08570313 9.14179688 56.09765625 10.27734375 C56 13 56 13 55 14 C52.64686445 14.07271741 50.29166332 14.08370868 47.9375 14.0625 C46.64714844 14.05347656 45.35679687 14.04445313 44.02734375 14.03515625 C43.02832031 14.02355469 42.02929688 14.01195312 41 14 C41 13.34 41 12.68 41 12 C40.34 12 39.68 12 39 12 C39 11.34 39 10.68 39 10 C38.34 10 37.68 10 37 10 C37 11.32 37 12.64 37 14 C33.48349444 14 30.44510974 13.59914952 27 13 C26.34 13 25.68 13 25 13 C21.66666667 13 18.33333333 13 15 13 C13.7625 13.3403125 13.7625 13.3403125 12.5 13.6875 C10 14 10 14 8.1875 12.6875 C7 11 7 11 7 9 C5.35 9.33 3.7 9.66 2 10 C2 11.32 2 12.64 2 14 C0.68 13.67 -0.64 13.34 -2 13 C-2.05391993 11.20866022 -2.09275571 9.41686101 -2.125 7.625 C-2.14820313 6.62726563 -2.17140625 5.62953125 -2.1953125 4.6015625 C-2 2 -2 2 0 0 Z M2 5 C2 5.66 2 6.32 2 7 C2.66 7 3.32 7 4 7 C4 6.34 4 5.68 4 5 C3.34 5 2.68 5 2 5 Z M11 8 C11 8.99 11 9.98 11 11 C11.66 10.67 12.32 10.34 13 10 C12.34 9.34 11.68 8.68 11 8 Z M51 8 C50.67 8.99 50.34 9.98 50 11 C50.66 11 51.32 11 52 11 C51.67 10.01 51.34 9.02 51 8 Z " fill="#FAC833" transform="translate(135,296)"/>
<path d="M0 0 C40.92 0 81.84 0 124 0 C124 0.66 124 1.32 124 2 C83.08 2 42.16 2 0 2 C0 1.34 0 0.68 0 0 Z " fill="#000000" transform="translate(226,316)"/>
<path d="M0 0 C1.32 0 2.64 0 4 0 C4.02686553 1.97909398 4.04633375 3.95828971 4.0625 5.9375 C4.07410156 7.03964844 4.08570313 8.14179688 4.09765625 9.27734375 C4 12 4 12 3 13 C0.64686445 13.07271741 -1.70833668 13.08370868 -4.0625 13.0625 C-5.35285156 13.05347656 -6.64320313 13.04445313 -7.97265625 13.03515625 C-8.97167969 13.02355469 -9.97070312 13.01195312 -11 13 C-11 12.34 -11 11.68 -11 11 C-11.66 11 -12.32 11 -13 11 C-13 10.34 -13 9.68 -13 9 C-13.66 9 -14.32 9 -15 9 C-15 10.32 -15 11.64 -15 13 C-15.66 13 -16.32 13 -17 13 C-18.23076923 7.58461538 -18.23076923 7.58461538 -17.0625 4.625 C-16.711875 4.08875 -16.36125 3.5525 -16 3 C-15.13375 3.2784375 -15.13375 3.2784375 -14.25 3.5625 C-11.76855951 4.04500232 -10.39011444 3.71703433 -8 3 C-7.34 3 -6.68 3 -6 3 C-6 3.66 -6 4.32 -6 5 C-5.01 5 -4.02 5 -3 5 C-3 4.34 -3 3.68 -3 3 C-2.34 3 -1.68 3 -1 3 C-0.67 2.01 -0.34 1.02 0 0 Z M-1 7 C-1.33 7.99 -1.66 8.98 -2 10 C-1.34 10 -0.68 10 0 10 C-0.33 9.01 -0.66 8.02 -1 7 Z " fill="#E2A50E" transform="translate(187,297)"/>
<path d="M0 0 C0.99 0 1.98 0 3 0 C3 0.99 3 1.98 3 3 C6.01031744 3.93423645 6.86650268 4.04449911 10 3 C10 3.66 10 4.32 10 5 C11.65 4.34 13.3 3.68 15 3 C15.95465783 5.16967689 16.14401212 6.56328793 15.3984375 8.82421875 C14.64129615 10.5684743 13.82390802 12.28627131 13 14 C12.34 14 11.68 14 11 14 C11 14.66 11 15.32 11 16 C10.01 16 9.02 16 8 16 C8 14.35 8 12.7 8 11 C7.34 11.66 6.68 12.32 6 13 C4.02 13 2.04 13 0 13 C0 8.71 0 4.42 0 0 Z " fill="#E1B315" transform="translate(195,297)"/>
<path d="M0 0 C1.67542976 0.28604898 3.34385343 0.61781233 5 1 C5 1.66 5 2.32 5 3 C4.34 3 3.68 3 3 3 C2.67 3.99 2.34 4.98 2 6 C2.99 6 3.98 6 5 6 C5.33 5.34 5.66 4.68 6 4 C5.67 5.65 5.34 7.3 5 9 C4.34 9 3.68 9 3 9 C3 10.32 3 11.64 3 13 C1.68 12.67 0.36 12.34 -1 12 C-1.02687279 10.18757948 -1.04633715 8.37504767 -1.0625 6.5625 C-1.07410156 5.55316406 -1.08570313 4.54382813 -1.09765625 3.50390625 C-1 1 -1 1 0 0 Z " fill="#FBB61F" transform="translate(134,297)"/>
<path d="M0 0 C0.99 0 1.98 0 3 0 C3 0.99 3 1.98 3 3 C3.99 3 4.98 3 6 3 C6.66 4.65 7.32 6.3 8 8 C7.01 8.33 6.02 8.66 5 9 C4.484375 9.515625 3.96875 10.03125 3.4375 10.5625 C2.7259375 11.2740625 2.7259375 11.2740625 2 12 C1.34 12 0.68 12 0 12 C0 8.04 0 4.08 0 0 Z " fill="#DCA312" transform="translate(195,297)"/>
<path d="M0 0 C2.97 0.495 2.97 0.495 6 1 C6.33 1.99 6.66 2.98 7 4 C7.66 4 8.32 4 9 4 C9 4.66 9 5.32 9 6 C8.34 6 7.68 6 7 6 C7 6.99 7 7.98 7 9 C6.01 9.33 5.02 9.66 4 10 C4.33 8.35 4.66 6.7 5 5 C4.01 5 3.02 5 2 5 C1.67 5.66 1.34 6.32 1 7 C1.33 5.68 1.66 4.36 2 3 C2.66 3.33 3.32 3.66 4 4 C4 3.34 4 2.68 4 2 C2.68 1.34 1.36 0.68 0 0 Z " fill="#FBCF16" transform="translate(135,296)"/>
<path d="M0 0 C1.32 0.66 2.64 1.32 4 2 C3.34 3.65 2.68 5.3 2 7 C1.34 7 0.68 7 0 7 C0 7.66 0 8.32 0 9 C-0.99 9 -1.98 9 -3 9 C-2.5020163 5.26512223 -2.12508244 3.18762365 0 0 Z " fill="#DF9F21" transform="translate(206,304)"/>
<path d="M0 0 C3.375 -0.125 3.375 -0.125 7 0 C7.66 0.66 8.32 1.32 9 2 C8.67 2.99 8.34 3.98 8 5 C7.67 4.67 7.34 4.34 7 4 C6.071875 4.309375 6.071875 4.309375 5.125 4.625 C4.42375 4.74875 3.7225 4.8725 3 5 C1.25 3.6875 1.25 3.6875 0 2 C0 1.34 0 0.68 0 0 Z " fill="#FAC715" transform="translate(160,300)"/>
<path d="M0 0 C2.64 0 5.28 0 8 0 C7.67 0.99 7.34 1.98 7 3 C4.4375 4.1875 4.4375 4.1875 2 5 C2 4.34 2 3.68 2 3 C1.34 3 0.68 3 0 3 C0 2.01 0 1.02 0 0 Z " fill="#C9991D" transform="translate(174,305)"/>
<path d="M0 0 C3.3 0.33 6.6 0.66 10 1 C10 1.33 10 1.66 10 2 C7.69 2 5.38 2 3 2 C2.67 3.98 2.34 5.96 2 8 C1.34 8 0.68 8 0 8 C-1.125 2.25 -1.125 2.25 0 0 Z " fill="#D9A21E" transform="translate(170,302)"/>
<path d="M0 0 C2.33944736 0.28730055 4.6739143 0.61936779 7 1 C6.67 2.65 6.34 4.3 6 6 C4.35 5.67 2.7 5.34 1 5 C1 4.01 1 3.02 1 2 C0.34 1.67 -0.32 1.34 -1 1 C-0.67 0.67 -0.34 0.34 0 0 Z " fill="#FBC819" transform="translate(151,300)"/>
<path d="M0 0 C0.33 1.98 0.66 3.96 1 6 C0.01 6.495 0.01 6.495 -1 7 C-1 6.34 -1 5.68 -1 5 C-2.65 4.67 -4.3 4.34 -6 4 C-5.67 3.01 -5.34 2.02 -5 1 C-3 0 -3 0 0 0 Z " fill="#F4BC2B" transform="translate(168,303)"/>
<path d="M0 0 C1.32 0.66 2.64 1.32 4 2 C2.875 4 2.875 4 1 6 C-2.1875 6.25 -2.1875 6.25 -5 6 C-4.360625 5.566875 -3.72125 5.13375 -3.0625 4.6875 C-0.73253997 3.08760823 -0.73253997 3.08760823 0 0 Z " fill="#E0AA25" transform="translate(200,304)"/>
<path d="M0 0 C0.7425 0.185625 1.485 0.37125 2.25 0.5625 C4.99006016 0.99841866 6.39020109 0.71994453 9 0 C9.66 0.33 10.32 0.66 11 1 C10.67 1.66 10.34 2.32 10 3 C7.03 3 4.06 3 1 3 C0.67 2.01 0.34 1.02 0 0 Z " fill="#F2BF05" transform="translate(170,300)"/>
<path d="M0 0 C0.33 0 0.66 0 1 0 C1 2.97 1 5.94 1 9 C-0.32 9.33 -1.64 9.66 -3 10 C-3.66 9.01 -4.32 8.02 -5 7 C-3.68 7 -2.36 7 -1 7 C-0.67 4.69 -0.34 2.38 0 0 Z " fill="#D6A30E" transform="translate(190,300)"/>
<path d="M0 0 C0.66 0 1.32 0 2 0 C3.625 2.5 3.625 2.5 5 5 C2.03 5 -0.94 5 -4 5 C-3.34 4.67 -2.68 4.34 -2 4 C-0.86649466 1.98330173 -0.86649466 1.98330173 0 0 Z " fill="#E1B040" transform="translate(182,305)"/>
<path d="M0 0 C0.99 0.33 1.98 0.66 3 1 C0.69 3.31 -1.62 5.62 -4 8 C-4.33 7.01 -4.66 6.02 -5 5 C-3.35 3.35 -1.7 1.7 0 0 Z " fill="#F6D53B" transform="translate(55,257)"/>
<path d="M0 0 C0.99 0 1.98 0 3 0 C2.67 2.64 2.34 5.28 2 8 C1.34 8 0.68 8 0 8 C-1.125 5.6875 -1.125 5.6875 -2 3 C-1.34 2.01 -0.68 1.02 0 0 Z " fill="#FACA17" transform="translate(145,300)"/>
<path d="M0 0 C3.24732932 1.62366466 3.70155136 4.75387839 5 8 C3.68 7.67 2.36 7.34 1 7 C0.67 4.69 0.34 2.38 0 0 Z " fill="#FBD139" transform="translate(142,302)"/>
<path d="M0 0 C4.29 0 8.58 0 13 0 C13 0.33 13 0.66 13 1 C8.71 1 4.42 1 0 1 C0 0.67 0 0.34 0 0 Z " fill="#000000" transform="translate(305,294)"/>
<path d="M0 0 C3.96 0 7.92 0 12 0 C12 0.33 12 0.66 12 1 C8.04 1 4.08 1 0 1 C0 0.67 0 0.34 0 0 Z " fill="#000000" transform="translate(260,294)"/>
<path d="M0 0 C1.98 0 3.96 0 6 0 C6 0.33 6 0.66 6 1 C4.02 1 2.04 1 0 1 C0 0.67 0 0.34 0 0 Z " fill="#000000" transform="translate(246,294)"/>
<path d="M0 0 C3 1 3 1 3 1 Z " fill="#000000" transform="translate(347,294)"/>
<path d="M0 0 C3 1 3 1 3 1 Z " fill="#000000" transform="translate(335,294)"/>
<path d="M0 0 C2 1 2 1 2 1 Z " fill="#000000" transform="translate(327,294)"/>
<path d="M0 0 C2 1 2 1 2 1 Z " fill="#000000" transform="translate(295,294)"/>
<path d="M0 0 C2 1 2 1 2 1 Z " fill="#000000" transform="translate(282,294)"/>
<path d="M0 0 C2 1 2 1 2 1 Z " fill="#000000" transform="translate(242,294)"/>
<path d="M0 0 C2 1 2 1 2 1 Z " fill="#000000" transform="translate(226,294)"/>
<path d="" fill="#000000" transform="translate(0,0)"/>
</svg>
