<svg xmlns="http://www.w3.org/2000/svg" version="1.1" xmlns:xlink="http://www.w3.org/1999/xlink" xmlns:svgjs="http://svgjs.dev/svgjs" viewBox="0 0 1422 800"><defs><linearGradient x1="50%" y1="0%" x2="50%" y2="100%" id="oooscillate-grad"><stop stop-color="hsl(50, 98%, 60%)" stop-opacity="1" offset="0%"></stop><stop stop-color="hsl(50, 98%, 80%)" stop-opacity="1" offset="100%"></stop></linearGradient></defs><g stroke-width="5.5" stroke="url(#oooscillate-grad)" fill="none" stroke-linecap="round"><path d="M 0 1408 Q 355.5 -100 711 400 Q 1066.5 900 1422 1408" opacity="0.60"></path><path d="M 0 1376 Q 355.5 -100 711 400 Q 1066.5 900 1422 1376" opacity="0.92"></path><path d="M 0 1344 Q 355.5 -100 711 400 Q 1066.5 900 1422 1344" opacity="0.99"></path><path d="M 0 1312 Q 355.5 -100 711 400 Q 1066.5 900 1422 1312" opacity="0.20"></path><path d="M 0 1280 Q 355.5 -100 711 400 Q 1066.5 900 1422 1280" opacity="0.83"></path><path d="M 0 1248 Q 355.5 -100 711 400 Q 1066.5 900 1422 1248" opacity="0.68"></path><path d="M 0 1216 Q 355.5 -100 711 400 Q 1066.5 900 1422 1216" opacity="0.68"></path><path d="M 0 1184 Q 355.5 -100 711 400 Q 1066.5 900 1422 1184" opacity="0.60"></path><path d="M 0 1152 Q 355.5 -100 711 400 Q 1066.5 900 1422 1152" opacity="0.16"></path><path d="M 0 1120 Q 355.5 -100 711 400 Q 1066.5 900 1422 1120" opacity="0.36"></path><path d="M 0 1088 Q 355.5 -100 711 400 Q 1066.5 900 1422 1088" opacity="0.58"></path><path d="M 0 1056 Q 355.5 -100 711 400 Q 1066.5 900 1422 1056" opacity="0.09"></path><path d="M 0 1024 Q 355.5 -100 711 400 Q 1066.5 900 1422 1024" opacity="0.39"></path><path d="M 0 992 Q 355.5 -100 711 400 Q 1066.5 900 1422 992" opacity="0.46"></path><path d="M 0 960 Q 355.5 -100 711 400 Q 1066.5 900 1422 960" opacity="0.80"></path><path d="M 0 928 Q 355.5 -100 711 400 Q 1066.5 900 1422 928" opacity="0.54"></path><path d="M 0 896 Q 355.5 -100 711 400 Q 1066.5 900 1422 896" opacity="0.55"></path><path d="M 0 864 Q 355.5 -100 711 400 Q 1066.5 900 1422 864" opacity="0.80"></path><path d="M 0 832 Q 355.5 -100 711 400 Q 1066.5 900 1422 832" opacity="0.58"></path><path d="M 0 800 Q 355.5 -100 711 400 Q 1066.5 900 1422 800" opacity="0.13"></path><path d="M 0 768 Q 355.5 -100 711 400 Q 1066.5 900 1422 768" opacity="0.29"></path><path d="M 0 736 Q 355.5 -100 711 400 Q 1066.5 900 1422 736" opacity="0.38"></path><path d="M 0 704 Q 355.5 -100 711 400 Q 1066.5 900 1422 704" opacity="0.62"></path><path d="M 0 672 Q 355.5 -100 711 400 Q 1066.5 900 1422 672" opacity="0.75"></path><path d="M 0 640 Q 355.5 -100 711 400 Q 1066.5 900 1422 640" opacity="0.43"></path><path d="M 0 608 Q 355.5 -100 711 400 Q 1066.5 900 1422 608" opacity="0.51"></path><path d="M 0 576 Q 355.5 -100 711 400 Q 1066.5 900 1422 576" opacity="0.40"></path><path d="M 0 544 Q 355.5 -100 711 400 Q 1066.5 900 1422 544" opacity="0.10"></path><path d="M 0 512 Q 355.5 -100 711 400 Q 1066.5 900 1422 512" opacity="0.28"></path><path d="M 0 480 Q 355.5 -100 711 400 Q 1066.5 900 1422 480" opacity="0.21"></path><path d="M 0 448 Q 355.5 -100 711 400 Q 1066.5 900 1422 448" opacity="0.67"></path><path d="M 0 416 Q 355.5 -100 711 400 Q 1066.5 900 1422 416" opacity="0.90"></path><path d="M 0 384 Q 355.5 -100 711 400 Q 1066.5 900 1422 384" opacity="0.42"></path><path d="M 0 352 Q 355.5 -100 711 400 Q 1066.5 900 1422 352" opacity="0.76"></path><path d="M 0 320 Q 355.5 -100 711 400 Q 1066.5 900 1422 320" opacity="0.44"></path><path d="M 0 288 Q 355.5 -100 711 400 Q 1066.5 900 1422 288" opacity="0.57"></path><path d="M 0 256 Q 355.5 -100 711 400 Q 1066.5 900 1422 256" opacity="0.31"></path><path d="M 0 224 Q 355.5 -100 711 400 Q 1066.5 900 1422 224" opacity="0.54"></path><path d="M 0 192 Q 355.5 -100 711 400 Q 1066.5 900 1422 192" opacity="0.87"></path><path d="M 0 160 Q 355.5 -100 711 400 Q 1066.5 900 1422 160" opacity="0.87"></path><path d="M 0 128 Q 355.5 -100 711 400 Q 1066.5 900 1422 128" opacity="0.76"></path><path d="M 0 96 Q 355.5 -100 711 400 Q 1066.5 900 1422 96" opacity="0.15"></path><path d="M 0 64 Q 355.5 -100 711 400 Q 1066.5 900 1422 64" opacity="0.33"></path></g></svg>