<svg xmlns="http://www.w3.org/2000/svg" version="1.1" xmlns:xlink="http://www.w3.org/1999/xlink" xmlns:svgjs="http://svgjs.dev/svgjs" viewBox="0 0 1422 800"><defs><linearGradient x1="50%" y1="0%" x2="50%" y2="100%" id="oooscillate-grad"><stop stop-color="hsl(0, 0%, 25%)" stop-opacity="1" offset="0%"></stop><stop stop-color="hsl(0, 0%, 67%)" stop-opacity="1" offset="100%"></stop></linearGradient></defs><g stroke-width="4.5" stroke="url(#oooscillate-grad)" fill="none" stroke-linecap="round"><path d="M 0 1479 Q 355.5 -100 711 400 Q 1066.5 900 1422 1479" opacity="0.13"></path><path d="M 0 1428 Q 355.5 -100 711 400 Q 1066.5 900 1422 1428" opacity="0.83"></path><path d="M 0 1377 Q 355.5 -100 711 400 Q 1066.5 900 1422 1377" opacity="0.16"></path><path d="M 0 1326 Q 355.5 -100 711 400 Q 1066.5 900 1422 1326" opacity="0.52"></path><path d="M 0 1275 Q 355.5 -100 711 400 Q 1066.5 900 1422 1275" opacity="0.84"></path><path d="M 0 1224 Q 355.5 -100 711 400 Q 1066.5 900 1422 1224" opacity="0.36"></path><path d="M 0 1173 Q 355.5 -100 711 400 Q 1066.5 900 1422 1173" opacity="0.42"></path><path d="M 0 1122 Q 355.5 -100 711 400 Q 1066.5 900 1422 1122" opacity="0.26"></path><path d="M 0 1071 Q 355.5 -100 711 400 Q 1066.5 900 1422 1071" opacity="0.62"></path><path d="M 0 1020 Q 355.5 -100 711 400 Q 1066.5 900 1422 1020" opacity="0.35"></path><path d="M 0 969 Q 355.5 -100 711 400 Q 1066.5 900 1422 969" opacity="0.56"></path><path d="M 0 918 Q 355.5 -100 711 400 Q 1066.5 900 1422 918" opacity="0.19"></path><path d="M 0 867 Q 355.5 -100 711 400 Q 1066.5 900 1422 867" opacity="0.66"></path><path d="M 0 816 Q 355.5 -100 711 400 Q 1066.5 900 1422 816" opacity="0.91"></path><path d="M 0 765 Q 355.5 -100 711 400 Q 1066.5 900 1422 765" opacity="0.96"></path><path d="M 0 714 Q 355.5 -100 711 400 Q 1066.5 900 1422 714" opacity="0.19"></path><path d="M 0 663 Q 355.5 -100 711 400 Q 1066.5 900 1422 663" opacity="0.55"></path><path d="M 0 612 Q 355.5 -100 711 400 Q 1066.5 900 1422 612" opacity="0.68"></path><path d="M 0 561 Q 355.5 -100 711 400 Q 1066.5 900 1422 561" opacity="0.69"></path><path d="M 0 510 Q 355.5 -100 711 400 Q 1066.5 900 1422 510" opacity="0.49"></path><path d="M 0 459 Q 355.5 -100 711 400 Q 1066.5 900 1422 459" opacity="0.27"></path><path d="M 0 408 Q 355.5 -100 711 400 Q 1066.5 900 1422 408" opacity="0.61"></path><path d="M 0 357 Q 355.5 -100 711 400 Q 1066.5 900 1422 357" opacity="0.92"></path><path d="M 0 306 Q 355.5 -100 711 400 Q 1066.5 900 1422 306" opacity="0.51"></path><path d="M 0 255 Q 355.5 -100 711 400 Q 1066.5 900 1422 255" opacity="0.79"></path><path d="M 0 204 Q 355.5 -100 711 400 Q 1066.5 900 1422 204" opacity="0.70"></path><path d="M 0 153 Q 355.5 -100 711 400 Q 1066.5 900 1422 153" opacity="0.57"></path><path d="M 0 102 Q 355.5 -100 711 400 Q 1066.5 900 1422 102" opacity="0.59"></path></g></svg>